<?xml version="1.0" standalone="no"?>
<!DOCTYPE svg PUBLIC "-//W3C//DTD SVG 20010904//EN" "http://www.w3.org/TR/2001/REC-SVG-20010904/DTD/svg10.dtd">
<svg xmlns="http://www.w3.org/2000/svg" version="1.0" width="512.000000pt" height="512.000000pt" viewBox="0 0 512.000000 512.000000" preserveAspectRatio="xMidYMid meet">
<metadata>
Created by potrace 1.16, written by Peter Selinger 2001-2019
<meta name="Producer" content="Online-Convert"/></metadata>
<g transform="translate(0.000000,512.000000) scale(0.100000,-0.100000)" fill="#000000" stroke="none">
<path d="M1085 5104 c-509 -95 -914 -508 -1001 -1020 -24 -142 -15 -383 20 -516 58 -227 166 -411 341 -583 158 -156 329 -256 535 -313 l75 -21 20 23 c11 12 53 62 93 109 241 286 620 507 1014 592 l77 17 7 46 c13 96 47 238 76 321 35 99 114 263 160 329 31 45 31 46 19 106 -7 34 -30 103 -51 154 -150 365 -460 635 -845 737 -87 23 -124 27 -280 30 -131 3 -202 0 -260 -11z m-101 -525 c25 -22 77 -111 182 -310 80 -153 147 -279 149 -279 2 0 67 123 145 273 165 317 188 347 270 347 61 0 106 -18 140 -55 20 -21 25 -37 25 -78 0 -49 -8 -65 -147 -295 -82 -133 -148 -245 -148 -247 0 -3 36 -5 79 -5 62 0 84 -4 102 -18 30 -25 30 -75 0 -105 -19 -20 -33 -22 -149 -25 l-127 -3 -18 -31 c-9 -16 -17 -45 -17 -64 l0 -34 144 0 c125 0 147 -2 167 -18 30 -25 30 -75 0 -105 -20 -20 -33 -22 -166 -25 l-145 -3 0 -125 c0 -134 -7 -159 -55 -204 -23 -22 -36 -25 -100 -25 -64 0 -77 3 -100 25 -48 45 -55 70 -55 204 l0 125 -145 3 c-133 3 -146 5 -166 25 -30 30 -30 80 0 105 20 16 42 18 167 18 l144 0 0 34 c0 19 -8 48 -17 64 l-18 31 -128 3 c-128 3 -129 3 -154 32 -18 21 -23 36 -18 55 11 47 39 61 126 61 43 0 79 2 79 5 0 2 -63 109 -141 236 -77 127 -145 244 -151 260 -22 65 11 135 77 165 17 7 53 13 82 14 44 0 58 -5 87 -31z"/>
<path d="M3595 4484 c-506 -89 -910 -479 -1011 -974 -9 -45 -14 -83 -12 -86 3 -2 60 -8 127 -14 151 -12 288 -40 437 -87 l113 -36 18 22 c13 16 33 25 66 28 45 5 58 15 37 28 -18 11 -50 136 -50 194 0 297 314 489 678 415 206 -42 362 -185 362 -334 0 -43 -34 -99 -70 -117 -34 -17 -121 -16 -146 2 -12 8 -36 43 -53 77 -60 119 -107 150 -227 150 -120 0 -209 -58 -234 -154 -15 -52 1 -140 36 -210 l24 -48 123 0 c178 0 227 -20 227 -93 0 -73 -47 -97 -189 -97 l-99 0 5 -38 c3 -21 0 -55 -6 -77 l-10 -39 97 -92 c87 -83 103 -94 152 -105 37 -8 84 -9 145 -4 144 13 161 12 190 -15 60 -56 55 -152 -10 -209 -32 -28 -89 -51 -127 -51 -30 0 -28 -15 19 -106 26 -49 65 -135 88 -191 l41 -102 73 40 c156 85 334 247 434 397 99 148 172 337 197 511 18 119 8 363 -19 471 -44 175 -118 331 -220 465 -197 259 -478 429 -795 480 -112 18 -305 18 -411 -1z"/>
<path d="M2470 3114 c-228 -17 -422 -69 -611 -165 -526 -264 -859 -804 -859 -1394 0 -414 164 -808 460 -1104 234 -234 536 -386 865 -437 180 -27 447 -14 625 30 180 46 414 161 567 279 318 244 535 624 589 1026 59 446 -73 888 -370 1232 -195 227 -488 409 -778 485 -134 34 -365 57 -488 48z m137 -418 c26 -23 28 -30 31 -115 l4 -91 33 0 c93 0 294 -64 394 -124 118 -72 190 -180 178 -268 -9 -70 -64 -126 -134 -135 -50 -7 -90 13 -140 70 -106 120 -168 173 -222 190 -29 9 -66 17 -82 17 l-29 0 0 -249 0 -250 58 -11 c97 -21 263 -79 331 -117 78 -43 160 -122 191 -183 95 -187 70 -435 -60 -583 -93 -105 -253 -174 -472 -202 l-48 -6 0 -80 c0 -91 -18 -145 -52 -158 -62 -23 -98 35 -98 155 l0 82 -67 7 c-181 18 -347 88 -446 188 -133 133 -173 310 -88 391 33 32 87 47 140 39 81 -13 106 -40 157 -173 48 -125 119 -177 262 -193 l42 -5 0 274 0 273 -42 11 c-234 59 -362 122 -455 223 -162 176 -147 459 35 642 93 93 292 175 427 175 l35 0 0 70 c0 76 17 132 47 149 27 16 39 13 70 -13z"/>
<path d="M2385 2226 c-78 -25 -142 -72 -172 -129 -21 -41 -19 -130 5 -175 33 -64 134 -125 240 -145 l32 -7 0 235 0 235 -32 -1 c-18 0 -51 -6 -73 -13z"/>
<path d="M2640 1150 l0 -259 33 5 c191 33 287 117 287 254 0 99 -39 155 -145 208 -39 19 -142 52 -164 52 -8 0 -11 -78 -11 -260z"/>
</g>
</svg>
